<?xml version="1.0" encoding="UTF-8" standalone="no"?>
<!-- Generator: Adobe Illustrator 27.5.0, SVG Export Plug-In . SVG Version: 6.00 Build 0)  -->

<svg
   version="1.1"
   x="0px"
   y="0px"
   viewBox="0 0 789.052 689.47247"
   xml:space="preserve"
   id="svg20"
   sodipodi:docname="edited_budgie.svg"
   width="789.052"
   height="689.47247"
   inkscape:version="1.3.2 (091e20e, 2023-11-25, custom)"
   xmlns:inkscape="http://www.inkscape.org/namespaces/inkscape"
   xmlns:sodipodi="http://sodipodi.sourceforge.net/DTD/sodipodi-0.dtd"
   xmlns="http://www.w3.org/2000/svg"
   xmlns:svg="http://www.w3.org/2000/svg"><defs
   id="defs20" /><sodipodi:namedview
   id="namedview20"
   pagecolor="#ffffff"
   bordercolor="#000000"
   borderopacity="0.25"
   inkscape:showpageshadow="2"
   inkscape:pageopacity="0.0"
   inkscape:pagecheckerboard="0"
   inkscape:deskcolor="#d1d1d1"
   inkscape:zoom="0.42789474"
   inkscape:cx="183.45633"
   inkscape:cy="220.84871"
   inkscape:window-width="1920"
   inkscape:window-height="1009"
   inkscape:window-x="1912"
   inkscape:window-y="-8"
   inkscape:window-maximized="1"
   inkscape:current-layer="svg20" />

<g
   id="Graphics"
   transform="translate(-756.288,-483.5075)">
	<g
   id="g2">
		<path
   style="fill:#4ADE80"
   d="m 1545.339,639.088 h -65.484 c -6.243,-38.136 -24.174,-73.284 -52.04,-101.15 -72.576,-72.574 -190.663,-72.574 -263.237,0 l -408.29,408.288 h 286.85 c 34.566,0 68.348,-6.733 100.409,-20.013 32.061,-13.28 60.71,-32.407 85.151,-56.848 l 53.518,-53.516 -17.819,-17.819 17.819,17.819 c 39.001,-39.001 39.001,-102.461 0,-141.462 -18.893,-18.893 -44.012,-29.298 -70.731,-29.298 -26.719,0 -51.838,10.405 -70.731,29.298 l 29.698,29.698 c 10.96,-10.96 25.532,-16.996 41.032,-16.996 15.5,0 30.072,6.036 41.032,16.996 22.625,22.625 22.625,59.44 0,82.065 v 0 L 1199,839.666 c -30.979,30.98 -70.958,51.975 -113.663,60.405 l 138.552,-138.55 c 8.201,-8.201 8.201,-21.497 0,-29.698 -8.201,-8.202 -21.498,-8.202 -29.698,0 L 1021.786,904.226 H 970.31 l 200.143,-200.141 -29.698,-29.698 -229.842,229.839 h -53.228 l 336.591,-336.589 c 56.198,-56.198 147.641,-56.198 203.841,0 27.224,27.224 42.217,63.42 42.217,101.92 0,38.5 -14.993,74.696 -42.217,101.919 l -285.455,285.454 74.05,74.05 h -51.372 v 42 h 100 88.119 100 v -42 h -60.351 l -101.899,-101.899 -29.698,29.698 72.201,72.201 h -57.603 l -74.05,-74.05 255.757,-255.756 c 32.425,-32.424 51.4,-74.706 54.156,-120.086 h 63.368 v -42 z"
   id="path1" />
		<path
   style="fill:#4ADE80"
   d="m 1377.548,629.085 c 0,-15.774 -12.833,-28.607 -28.607,-28.607 -15.774,0 -28.607,12.833 -28.607,28.607 0,15.775 12.833,28.607 28.607,28.607 15.774,0 28.607,-12.832 28.607,-28.607 z"
   id="path2" />
	</g>
	<g
   id="g16">
		
		
		
		
		
		
		
		
		
		
		
		
		
		
	</g>
	<g
   id="g20">
		
		
		<g
   id="g21" />
		
	</g>
</g>
</svg>
